<svg width="40" height="40" viewBox="0 0 66 66" fill="none" xmlns="http://www.w3.org/2000/svg">
<g filter="url(#filter0_d_28_648)">
<rect x="16" y="8" width="40" height="40" rx="20" fill="white"/>
<path d="M46.4385 28.4385C46.6807 28.1963 46.6807 27.8037 46.4385 27.5615L42.4918 23.6147C42.2496 23.3725 41.8569 23.3725 41.6147 23.6147C41.3725 23.8569 41.3725 24.2496 41.6147 24.4918L45.1229 28L41.6147 31.5082C41.3725 31.7504 41.3725 32.1431 41.6147 32.3853C41.8569 32.6275 42.2496 32.6275 42.4918 32.3853L46.4385 28.4385ZM26 28.6202L46 28.6202L46 27.3798L26 27.3798L26 28.6202Z" fill="#050910"/>
</g>
<defs>
<filter id="filter0_d_28_648" x="0" y="0" width="40" height="40" filterUnits="userSpaceOnUse" color-interpolation-filters="sRGB">
<feFlood flood-opacity="0" result="BackgroundImageFix"/>
<feColorMatrix in="SourceAlpha" type="matrix" values="0 0 0 0 0 0 0 0 0 0 0 0 0 0 0 0 0 0 127 0" result="hardAlpha"/>
<feOffset dx="-3" dy="5"/>
<feGaussianBlur stdDeviation="6.5"/>
<feColorMatrix type="matrix" values="0 0 0 0 0.379167 0 0 0 0 0.379167 0 0 0 0 0.379167 0 0 0 0.4 0"/>
<feBlend mode="normal" in2="BackgroundImageFix" result="effect1_dropShadow_28_648"/>
<feBlend mode="normal" in="SourceGraphic" in2="effect1_dropShadow_28_648" result="shape"/>
</filter>
</defs>
</svg>
