<svg width="40" height="40" viewBox="0 0 66 66" fill="none" xmlns="http://www.w3.org/2000/svg">
<g filter="url(#filter0_d_28_647)">
<rect width="40" height="40" rx="20" transform="matrix(-1 0 0 1 56 8)" fill="white"/>
<path d="M25.5615 28.4385C25.3193 28.1963 25.3193 27.8037 25.5615 27.5615L29.5082 23.6147C29.7504 23.3725 30.1431 23.3725 30.3853 23.6147C30.6275 23.8569 30.6275 24.2496 30.3853 24.4918L26.8771 28L30.3853 31.5082C30.6275 31.7504 30.6275 32.1431 30.3853 32.3853C30.1431 32.6275 29.7504 32.6275 29.5082 32.3853L25.5615 28.4385ZM46 28.6202L26 28.6202L26 27.3798L46 27.3798L46 28.6202Z" fill="#050910"/>
</g>
<defs>
<filter id="filter0_d_28_647" x="0" y="0" width="66" height="66" filterUnits="userSpaceOnUse" color-interpolation-filters="sRGB">
<feFlood flood-opacity="0" result="BackgroundImageFix"/>
<feColorMatrix in="SourceAlpha" type="matrix" values="0 0 0 0 0 0 0 0 0 0 0 0 0 0 0 0 0 0 127 0" result="hardAlpha"/>
<feOffset dx="-3" dy="5"/>
<feGaussianBlur stdDeviation="6.5"/>
<feColorMatrix type="matrix" values="0 0 0 0 0.379167 0 0 0 0 0.379167 0 0 0 0 0.379167 0 0 0 0.4 0"/>
<feBlend mode="normal" in2="BackgroundImageFix" result="effect1_dropShadow_28_647"/>
<feBlend mode="normal" in="SourceGraphic" in2="effect1_dropShadow_28_647" result="shape"/>
</filter>
</defs>
</svg>
